<svg width="96" height="96" viewBox="0 0 96 96" fill="none" xmlns="http://www.w3.org/2000/svg">
<rect width="96" height="96" rx="10.6667" fill="url(#paint0_linear_164_12)"/>
<mask id="path-2-inside-1_164_12" fill="white">
<path d="M16 15.6767C16 9.96416 20.6309 5.33325 26.3434 5.33325V5.33325C26.522 5.33325 26.6667 5.47797 26.6667 5.65648V37.3333C26.6667 39.4734 26.6667 40.5435 26.1531 41.3121C25.9307 41.6449 25.645 41.9306 25.3122 42.153C24.5435 42.6666 23.4735 42.6666 21.3333 42.6666H17.1313C16.5065 42.6666 16 42.1601 16 41.5353V15.6767Z"/>
</mask>
<path d="M16 15.6767C16 9.96416 20.6309 5.33325 26.3434 5.33325V5.33325C26.522 5.33325 26.6667 5.47797 26.6667 5.65648V37.3333C26.6667 39.4734 26.6667 40.5435 26.1531 41.3121C25.9307 41.6449 25.645 41.9306 25.3122 42.153C24.5435 42.6666 23.4735 42.6666 21.3333 42.6666H17.1313C16.5065 42.6666 16 42.1601 16 41.5353V15.6767Z" stroke="white" stroke-width="6.66667" mask="url(#path-2-inside-1_164_12)"/>
<mask id="path-3-inside-2_164_12" fill="white">
<path d="M16 59.6362C16 59.1007 16.4341 58.6665 16.9697 58.6665H25.9048C28.7781 58.6665 30.2147 58.6665 31.1074 59.5591C32 60.4518 32 61.8884 32 64.7617V90.1817C32 90.4494 31.7829 90.6665 31.5152 90.6665V90.6665C22.9464 90.6665 16 83.7201 16 75.1514V59.6362Z"/>
</mask>
<path d="M16 59.6362C16 59.1007 16.4341 58.6665 16.9697 58.6665H25.9048C28.7781 58.6665 30.2147 58.6665 31.1074 59.5591C32 60.4518 32 61.8884 32 64.7617V90.1817C32 90.4494 31.7829 90.6665 31.5152 90.6665V90.6665C22.9464 90.6665 16 83.7201 16 75.1514V59.6362Z" stroke="white" stroke-width="6.66667" mask="url(#path-3-inside-2_164_12)"/>
<mask id="path-4-inside-3_164_12" fill="white">
<path d="M69.3333 5.65648C69.3333 5.47797 69.478 5.33325 69.6565 5.33325V5.33325C75.3691 5.33325 80 9.96416 80 15.6767V41.5353C80 42.1601 79.4935 42.6666 78.8687 42.6666H74.6666C72.5265 42.6666 71.4564 42.6666 70.6878 42.153C70.355 41.9306 70.0693 41.6449 69.8469 41.3121C69.3333 40.5435 69.3333 39.4734 69.3333 37.3333V5.65648Z"/>
</mask>
<path d="M69.3333 5.65648C69.3333 5.47797 69.478 5.33325 69.6565 5.33325V5.33325C75.3691 5.33325 80 9.96416 80 15.6767V41.5353C80 42.1601 79.4935 42.6666 78.8687 42.6666H74.6666C72.5265 42.6666 71.4564 42.6666 70.6878 42.153C70.355 41.9306 70.0693 41.6449 69.8469 41.3121C69.3333 40.5435 69.3333 39.4734 69.3333 37.3333V5.65648Z" stroke="white" stroke-width="6.66667" mask="url(#path-4-inside-3_164_12)"/>
<mask id="path-5-inside-4_164_12" fill="white">
<path d="M64 64.7617C64 61.8884 64 60.4518 64.8926 59.5591C65.7853 58.6665 67.2219 58.6665 70.0952 58.6665H79.0303C79.5659 58.6665 80 59.1007 80 59.6362V75.1514C80 83.7201 73.0536 90.6665 64.4848 90.6665V90.6665C64.2171 90.6665 64 90.4494 64 90.1817V64.7617Z"/>
</mask>
<path d="M64 64.7617C64 61.8884 64 60.4518 64.8926 59.5591C65.7853 58.6665 67.2219 58.6665 70.0952 58.6665H79.0303C79.5659 58.6665 80 59.1007 80 59.6362V75.1514C80 83.7201 73.0536 90.6665 64.4848 90.6665V90.6665C64.2171 90.6665 64 90.4494 64 90.1817V64.7617Z" stroke="white" stroke-width="6.66667" mask="url(#path-5-inside-4_164_12)"/>
<rect x="17.6667" y="46.9999" width="60.6667" height="7.33333" rx="3.66667" stroke="white" stroke-width="3.33333"/>
<defs>
<linearGradient id="paint0_linear_164_12" x1="47.8039" y1="96" x2="48.1961" y2="-1.7128e-06" gradientUnits="userSpaceOnUse">
<stop/>
<stop offset="0.99" stop-color="#444444"/>
</linearGradient>
</defs>
</svg>
